<svg id="Layer_5" enable-background="new 0 0 64 64" height="512" viewBox="0 0 64 64" width="512" xmlns="http://www.w3.org/2000/svg"><path d="m54.049 15.199c1.799-1.469 2.951-3.701 2.951-6.199 0-4.411-3.589-8-8-8s-8 3.589-8 8c0 2.39 1.059 4.533 2.726 6h-12.726v-9c0-2.757-2.243-5-5-5s-5 2.243-5 5v9h-.5c-1.93 0-3.5 1.57-3.5 3.5s1.57 3.5 3.5 3.5h.5v7.414l3.979 3.979-4.979 2.489-6-3-7 3.5v8l-6 3v9.236l7 3.5 6-3 6 3 6-3 6 3 7-3.5v-9.236l-6-3v-8l-5.979-2.989 3.979-3.979v-7.414h7.5c.827 0 1.5.673 1.5 1.5v24.118l.553.276c.06.03.601.295 1.447.627v10.479c0 2.206 1.794 4 4 4 1.201 0 2.266-.542 3-1.382.734.84 1.799 1.382 3 1.382 2.206 0 4-1.794 4-4v-10.479c.847-.331 1.388-.597 1.447-.627l.553-.276v-9.618c2.757 0 5-2.243 5-5v-7c0-5.365-3.863-9.838-8.951-10.801zm-5.201 5.16-2.864-3.359h5.809zm-5.848-11.359c0-3.309 2.691-6 6-6s6 2.691 6 6-2.691 6-6 6-6-2.691-6-6zm-20 18v-14h6v14zm5.586 2-2.586 2.586-2.586-2.586zm.414-18h-6v-2h6zm-3-8c1.654 0 3 1.346 3 3v1h-6v-1c0-1.654 1.346-3 3-3zm-5.5 17c-.827 0-1.5-.673-1.5-1.5s.673-1.5 1.5-1.5h.5v3zm-11.5 17.618 5-2.5 5 2.5v6.764l-5 2.5-5-2.5zm4 17.764-5 2.5-5-2.5v-6.764l5-2.5 5 2.5zm7 2.5-5-2.5v-6.764l5-2.5 5 2.5v6.764zm17-2.5-5 2.5-5-2.5v-6.764l5-2.5 5 2.5zm-6-11-5 2.5-5-2.5v-6.764l5-2.5 5 2.5zm7.5-24.382h-7.5v-3h12.357l4.159 4.878-1.531 1.746v24.021c-1.728-.375-3.218-.956-3.984-1.287v-22.858c-.001-1.93-1.571-3.5-3.501-3.5zm7.5 41c-1.103 0-2-.897-2-2v-9.795c1.18.347 2.565.651 4 .754v9.041c0 1.103-.897 2-2 2zm8-2c0 1.103-.897 2-2 2s-2-.897-2-2v-9.041c1.435-.103 2.82-.407 4-.754zm7-26c0 1.654-1.346 3-3 3v-14h-2v24.358c-1.189.516-4.116 1.642-7 1.642-.339 0-.678-.018-1.016-.047v-23.577l6.219-7.092c3.9.987 6.797 4.515 6.797 8.716z"/><path d="m50 25h2v2h-2z"/><path d="m50 29h2v2h-2z"/><path d="m50 33h2v2h-2z"/><path d="m50 37h2v2h-2z"/></svg>