<svg id="Capa_1" enable-background="new 0 0 512 512" height="512" viewBox="0 0 512 512" width="512" xmlns="http://www.w3.org/2000/svg"><g><path d="m331 16h-30v30h-114.072c-10.391-17.916-29.769-30-51.928-30-33.084 0-60 26.916-60 60s26.916 60 60 60 60-26.916 60-60h287v240h-272v-90h121v-90h-256c-41.355 0-75 33.645-75 75v135h60v150h150v-150h83.844l-51.772 129.429 27.854 11.142 46.074-115.182 46.073 115.182 27.854-11.142-51.771-129.429h173.844v-300h-181zm-196 90c-16.542 0-30-13.458-30-30s13.458-30 30-30 30 13.458 30 30-13.458 30-30 30zm45 360h-30v-150h-30v150h-30c0-14.578 0-255.435 0-270h-30v120h-30v-105c0-24.813 20.187-45 45-45h226v30h-121z"/></g></svg>